<svg id="Layer_1" data-name="Layer 1" xmlns="http://www.w3.org/2000/svg" viewBox="0 0 1000 1225.89"><defs><style>.cls-1{fill:#82725b;}.cls-2{fill:#d3aa7e;}</style></defs><title>Artboard 1 copy</title><path class="cls-1" d="M174.33,699.38a4.92,4.92,0,0,0-1.93,2.06,14.32,14.32,0,0,0-.88,2.39L158,697.35q2.27-.43,4.57-1a15.11,15.11,0,0,0,3.85-1.49L205,670.75a8,8,0,0,0,2.26-2.33,31,31,0,0,0,1.64-2.86l7.92,12.67a13.05,13.05,0,0,1,2,5.16,11.77,11.77,0,0,1-.29,4.74,11.42,11.42,0,0,1-2.07,4.05,13.22,13.22,0,0,1-3.38,3,13.54,13.54,0,0,1-4.23,1.72,11.37,11.37,0,0,1-4.57.1,11.72,11.72,0,0,1-4.39-1.82,13,13,0,0,1-3.77-4l-2.42-3.87-2.8,1.75a6.9,6.9,0,0,1,1,2.09,6.77,6.77,0,0,0-3.18,0,9.78,9.78,0,0,0-3.12,1.24Zm24.32-15.2,1.37,2.19a6,6,0,0,0,1.74,1.82,7,7,0,0,0,2.21,1,6.2,6.2,0,0,0,2.44.1,6.12,6.12,0,0,0,2.38-.89,6,6,0,0,0,1.79-1.72,6.23,6.23,0,0,0,1-2.23,7,7,0,0,0,.08-2.42,6,6,0,0,0-.87-2.36l-1.37-2.19Z"/><path class="cls-1" d="M228.69,709.49a24,24,0,0,0-2.85,1.15,6.25,6.25,0,0,0-2.37,2L214.89,724a6.3,6.3,0,0,1,1.24,2.07,4.65,4.65,0,0,0-2.74.85,9.16,9.16,0,0,0-2.43,2.26L203.5,739a9.75,9.75,0,0,0-1.54,3.21q-.52,1.85-.87,3.69l-7.58-10.14a29.66,29.66,0,0,0,2.76-1.17,6.27,6.27,0,0,0,2.37-2l4.5-5.91-5.82-7.78-6.94,2.64a6.26,6.26,0,0,0-2.58,1.71,29.35,29.35,0,0,0-1.9,2.32l-7.58-10.14q1.86.18,3.79.2a9.76,9.76,0,0,0,3.51-.56l31-11.69a6.28,6.28,0,0,0,2.58-1.71,24.41,24.41,0,0,0,1.91-2.4Zm-21.85,12.36,6.84-9.09-10.65,4Z"/><path class="cls-1" d="M248.57,732.92a13,13,0,0,1,2.94,4.69,11.74,11.74,0,0,1,.62,4.71,11.36,11.36,0,0,1-1.28,4.39,13.42,13.42,0,0,1-5.7,5.73,11.64,11.64,0,0,1-3.42,1.18,11.77,11.77,0,0,1-3.67.06,10.79,10.79,0,0,1-3.71-1.25l-7.24,13a10.44,10.44,0,0,0-1.12,3.42,32,32,0,0,0-.37,3.87l-8.68-9.3a18.85,18.85,0,0,0,2.56-1.52,7.13,7.13,0,0,0,2.07-2.31l6.92-12.37-.9-1-9.83,9.17a7.33,7.33,0,0,0-1.81,2.68,31.07,31.07,0,0,0-1.06,3.13L206.27,752a30.88,30.88,0,0,0,3.19-.84,8,8,0,0,0,2.79-1.54l23.29-21.74a7.92,7.92,0,0,0,1.73-2.68q.63-1.57,1.11-3.17Zm-16.67,9.31,1.76,1.89a6.21,6.21,0,0,0,4.39,2,6.68,6.68,0,0,0,2.41-.36,6.19,6.19,0,0,0,3.6-3.36,6.66,6.66,0,0,0,.17-4.79,6,6,0,0,0-1.3-2.15l-1.76-1.89Z"/><path class="cls-1" d="M264.52,757l-8.74,9.82,2.2,2a7.2,7.2,0,0,0,2.79,1.52A30.45,30.45,0,0,0,264,771l-7,7.84q-.47-1.54-1.12-3.12a7,7,0,0,0-1.81-2.61l-2.2-2-8.62,9.68a7.34,7.34,0,0,0-1.56,2.83,30.71,30.71,0,0,0-.77,3.21l-9.46-8.42a31,31,0,0,0,3.1-1.14,7.94,7.94,0,0,0,2.64-1.79l21.18-23.8a7.92,7.92,0,0,0,1.47-2.83q.48-1.62.81-3.26l19,16.87-5.47,6.14q-.52-1.58-1.16-3.16a7,7,0,0,0-1.81-2.61Z"/><path class="cls-1" d="M309.81,785.14q-1.52.67-3,1.47a7,7,0,0,0-2.42,2.06l-8,11a7.12,7.12,0,0,1,1.72,1.62,6.46,6.46,0,0,0-3,1.17,9.75,9.75,0,0,0-2.42,2.32l-2.08,2.87a13.88,13.88,0,0,1-4.21,3.88,14.61,14.61,0,0,1-10.68,1.71,14.38,14.38,0,0,1-9.09-6.58,14.33,14.33,0,0,1-1.86-5.16A15,15,0,0,1,265,796a13.87,13.87,0,0,1,2.37-5.21l13.76-19a7.93,7.93,0,0,0,1.18-3q.31-1.66.48-3.32L293,773q-1.53.67-3,1.49a7.21,7.21,0,0,0-2.4,2.08l-8,11a6.92,6.92,0,0,1,1.67,1.58,6.77,6.77,0,0,0-2.94,1.2,9.75,9.75,0,0,0-2.42,2.32l-3.38,4.66a6,6,0,0,0-1,2.29,6.93,6.93,0,0,0-.09,2.42,5.81,5.81,0,0,0,.84,2.27,6.32,6.32,0,0,0,1.69,1.81,6.48,6.48,0,0,0,2.3,1.07,5.83,5.83,0,0,0,2.42.09,7,7,0,0,0,2.27-.84,5.92,5.92,0,0,0,1.86-1.69L297.85,784a7,7,0,0,0,1.21-2.94q.29-1.68.45-3.34Z"/><path class="cls-1" d="M336,801.71q0-.69,0-1.38L347,806.45q-1.43.85-2.8,1.84a7.18,7.18,0,0,0-2.13,2.35l-6.6,11.91a6.86,6.86,0,0,1,1.85,1.37,6.75,6.75,0,0,0-2.78,1.55,9.77,9.77,0,0,0-2.12,2.6l-5.76,10.39a7.33,7.33,0,0,0-.9,3.1,30.7,30.7,0,0,0,0,3.3l-11.06-6.13a30.55,30.55,0,0,0,2.8-1.78,7.1,7.1,0,0,0,2.14-2.35L332,812.31l-13.84,6.6L316.43,804l-12.21,22a7.37,7.37,0,0,0-.9,3.1,31.17,31.17,0,0,0-.06,3.3l-11.06-6.13A31.28,31.28,0,0,0,295,824.5a7.94,7.94,0,0,0,2.18-2.33L312.6,794.3a7.9,7.9,0,0,0,.81-3.08q.11-1.69.08-3.35L324.54,794l-1.25.78q-.62.38-1.2.81L323.6,809l12.33-5.93Q336,802.39,336,801.71Z"/><path class="cls-1" d="M358.39,817.65l-5.08,12.12,2.71,1.14a7.2,7.2,0,0,0,3.13.53,30.66,30.66,0,0,0,3.29-.31l-4.06,9.68q-.95-1.31-2.07-2.59a7,7,0,0,0-2.56-1.89L351,835.19l-5.08,12.12,8.24,3.46a7.21,7.21,0,0,0,3.13.53c1.13,0,2.24-.14,3.34-.29l-3.16,7.53-23.41-9.82a30.89,30.89,0,0,0,2.56-2.08,7.93,7.93,0,0,0,1.91-2.55l12.32-29.38a7.93,7.93,0,0,0,.48-3.15q-.07-1.69-.29-3.34l23.4,9.82-3.18,7.58q-1-1.33-2.12-2.61a7,7,0,0,0-2.56-1.89Z"/><path class="cls-1" d="M392.61,824.13a13,13,0,0,1,4.87,2.62,11.76,11.76,0,0,1,2.87,3.79A11.36,11.36,0,0,1,401.4,835a13.44,13.44,0,0,1-2.12,7.79,11.66,11.66,0,0,1-2.39,2.71,11.79,11.79,0,0,1-3.16,1.87,10.79,10.79,0,0,1-3.85.74L390,863a10.47,10.47,0,0,0,.72,3.53,32.2,32.2,0,0,0,1.59,3.55l-12.14-3.8a18.81,18.81,0,0,0,1.47-2.59,7.12,7.12,0,0,0,.67-3l-.09-14.17-1.26-.39-4,12.83a7.31,7.31,0,0,0-.25,3.22,30.78,30.78,0,0,0,.62,3.24l-12.08-3.78a30.82,30.82,0,0,0,2.36-2.31,7.93,7.93,0,0,0,1.67-2.72l9.52-30.4A7.93,7.93,0,0,0,379,823q-.23-1.67-.6-3.3Zm-9.89,16.33,2.46.77a6.22,6.22,0,0,0,4.81-.41,6.66,6.66,0,0,0,1.92-1.5,6.19,6.19,0,0,0,1.47-4.7,6.67,6.67,0,0,0-2.22-4.25,6,6,0,0,0-2.2-1.22l-2.46-.77Z"/><path class="cls-1" d="M421.62,831.9q-1.15,1.21-2.19,2.54a7.17,7.17,0,0,0-1.4,2.84l-3.1,13.26a6.88,6.88,0,0,1,2.15.81,6.75,6.75,0,0,0-2.25,2.25,9.74,9.74,0,0,0-1.33,3.08l-2.7,11.57a7.32,7.32,0,0,0,0,3.23,30.65,30.65,0,0,0,.86,3.19l-12.33-2.88a30.85,30.85,0,0,0,2.18-2.48,7.94,7.94,0,0,0,1.46-2.83l7.25-31a8,8,0,0,0-.06-3.19q-.35-1.65-.84-3.25Z"/><path class="cls-1" d="M434.66,840.42l-2.1,13,2.9.47a7.22,7.22,0,0,0,3.17-.22,31,31,0,0,0,3.12-1.08l-1.68,10.37q-1.23-1-2.62-2a7,7,0,0,0-2.93-1.23l-2.9-.47-2.1,13,8.83,1.43a7.19,7.19,0,0,0,3.17-.22q1.63-.47,3.18-1.07l-1.3,8.06-25.05-4a30.81,30.81,0,0,0,2-2.62,7.93,7.93,0,0,0,1.26-2.93l5.08-31.45a7.91,7.91,0,0,0-.28-3.18q-.47-1.62-1.07-3.18l25.05,4-1.31,8.12q-1.29-1.06-2.68-2a7,7,0,0,0-2.93-1.23Z"/><path class="cls-1" d="M548.4,833.49a18.75,18.75,0,0,1,6.79-6.71,31.56,31.56,0,0,1,8.92-3.23l8.34-1.73q-.5,1.76-.88,3.58a8.51,8.51,0,0,0,0,3.53l.75,3.64a8.57,8.57,0,0,0-2.93-2.76,5.81,5.81,0,0,0-3.94-.53,15.58,15.58,0,0,0-7.17,3.26,14.4,14.4,0,0,0-4,5.61,20.56,20.56,0,0,0-1.39,7.35,38.31,38.31,0,0,0,.84,8.49,7.13,7.13,0,0,1,2.35-.18,5.24,5.24,0,0,0-.95,2.06,13,13,0,0,0-.33,2.42,30.81,30.81,0,0,0,2.27,5.5,23,23,0,0,0,3.1,4.47,14.47,14.47,0,0,0,6.27,4.24,13.72,13.72,0,0,0,7.55.36,8.39,8.39,0,0,0,2.06-.7,5,5,0,0,0,1.59-1.22,4.11,4.11,0,0,0,.88-1.81,5.84,5.84,0,0,0-.05-2.47,3.23,3.23,0,0,0-1.17-2.12,2.18,2.18,0,0,0-1.71-.41,2.13,2.13,0,0,0-1.4,1.09,3.24,3.24,0,0,0-.24,2.38,3.14,3.14,0,0,1-2-.74,3.37,3.37,0,0,1-1.05-1.68,3.48,3.48,0,0,1,.39-2.87,5,5,0,0,1,2.16-2,7.12,7.12,0,0,1,3.71-.71,8.51,8.51,0,0,1,3.47,1.06,7.32,7.32,0,0,1,3,3.3,9.77,9.77,0,0,1,.92,4.47,9.9,9.9,0,0,1-2.58,6.61,11.33,11.33,0,0,1-6.23,3.49,25.42,25.42,0,0,1-11.07.09,21.35,21.35,0,0,1-8.73-4.26,25.25,25.25,0,0,1-6.27-7.8A39.25,39.25,0,0,1,545.89,856a42.21,42.21,0,0,1-.84-12.17A22.89,22.89,0,0,1,548.4,833.49Z"/><path class="cls-1" d="M594.63,823.57a13.9,13.9,0,0,1,5.64-.66,14.42,14.42,0,0,1,9.68,4.9,14,14,0,0,1,2.82,4.94l1.65,5a6.91,6.91,0,0,1,2.26-.43,6.77,6.77,0,0,0-.75,3.09,9.79,9.79,0,0,0,.46,3.32l1.11,3.36a13.87,13.87,0,0,1,.67,5.68,14.72,14.72,0,0,1-1.5,5.29,14.53,14.53,0,0,1-3.38,4.37A14.24,14.24,0,0,1,602.68,866a14.57,14.57,0,0,1-9.64-4.88,13.88,13.88,0,0,1-2.83-5l-4.73-14.36a13.94,13.94,0,0,1-.66-5.66,14.5,14.5,0,0,1,4.85-9.68A13.83,13.83,0,0,1,594.63,823.57Zm.14,20.67a7,7,0,0,1,2.3-.44,6.46,6.46,0,0,0-.79,3.1,9.92,9.92,0,0,0,.47,3.32l1.8,5.47a6,6,0,0,0,1.25,2.18,6.65,6.65,0,0,0,1.94,1.48,6.43,6.43,0,0,0,7-.88,5.92,5.92,0,0,0,1.46-1.9,6.89,6.89,0,0,0,.65-2.33,5.94,5.94,0,0,0-.29-2.5l-6.09-18.52a6,6,0,0,0-1.26-2.18,6.93,6.93,0,0,0-1.91-1.49,6.33,6.33,0,0,0-2.31-.69,6.19,6.19,0,0,0-4.67,1.54,7,7,0,0,0-1.49,1.91,6.28,6.28,0,0,0-.39,4.87Z"/><path class="cls-1" d="M626.19,811.65a13.12,13.12,0,0,1,3.89-1.07,13.37,13.37,0,0,1,3.86.13,14.92,14.92,0,0,1,3.63,1.15,14.75,14.75,0,0,1,3.18,2l-4.18,6.57a6.48,6.48,0,0,0-1.38-2,6.73,6.73,0,0,0-2-1.35,5.9,5.9,0,0,0-2.3-.52,5.43,5.43,0,0,0-2.35.48,5.22,5.22,0,0,0-1.91,1.4,6.33,6.33,0,0,0-1.48,4.36,6.49,6.49,0,0,0,.56,2.38,5.47,5.47,0,0,0,2,2.54,5.92,5.92,0,0,0,2.67.85,14.32,14.32,0,0,0,3.28-.14q1.79-.27,3.81-.44a19.39,19.39,0,0,1,4.31.09,13.55,13.55,0,0,1,3.87,1.11,10.81,10.81,0,0,1,3.22,2.31,12.45,12.45,0,0,1,2.42,3.69,10.17,10.17,0,0,1,.87,4.7,14.41,14.41,0,0,1-1,4.69,12.48,12.48,0,0,1-3,4.37,15.82,15.82,0,0,1-4.56,3,13.83,13.83,0,0,1-7.85,1.08,14.51,14.51,0,0,1-7.09-3.13l3.3-8.55.9,2a6,6,0,0,0,1.46,2,6.69,6.69,0,0,0,2.08,1.28,6.33,6.33,0,0,0,8.18-3.62,6.65,6.65,0,0,0,.45-2.4,5.93,5.93,0,0,0-.53-2.46,4.89,4.89,0,0,0-2.6-2.75A8.46,8.46,0,0,0,638,835q-2,.12-4.25.34a30.48,30.48,0,0,1-4.3.13,16.09,16.09,0,0,1-4.08-.69,9.24,9.24,0,0,1-3.67-2.21,12,12,0,0,1-3.29-5.8,11.77,11.77,0,0,1,.31-6.86,14.1,14.1,0,0,1,2.88-4.91A13.22,13.22,0,0,1,626.19,811.65Z"/><path class="cls-1" d="M665.52,792.68l-1.2-.69,10.93-6.36q0,1.67.14,3.35a7.18,7.18,0,0,0,.93,3l6.85,11.78a6.88,6.88,0,0,1,2.12-.89,6.76,6.76,0,0,0-.1,3.18,9.76,9.76,0,0,0,1.14,3.15l6,10.27a7.33,7.33,0,0,0,2.21,2.36,30.5,30.5,0,0,0,2.81,1.73L686.39,830a30.59,30.59,0,0,0-.09-3.31,7.11,7.11,0,0,0-.92-3l-12.82-22-1.43,15.27-13.7-6.19,12.67,21.78a7.34,7.34,0,0,0,2.2,2.37,31.13,31.13,0,0,0,2.8,1.74l-10.93,6.35a30.43,30.43,0,0,0-.11-3.3,7.92,7.92,0,0,0-.88-3.06l-16-27.54a7.92,7.92,0,0,0-2.23-2.28q-1.39-1-2.84-1.78L653,798.55c0,.5,0,1,0,1.48s0,1,.08,1.45l12.33,5.6,1.23-13.62C666.3,793.17,665.91,792.91,665.52,792.68Z"/><path class="cls-1" d="M690.71,781.59l7.8,10.57,2.37-1.75a7.17,7.17,0,0,0,2.06-2.41,30.46,30.46,0,0,0,1.42-3l6.23,8.45q-1.61.15-3.29.45a7,7,0,0,0-2.93,1.23L702,796.89l7.8,10.57,7.19-5.31a7.17,7.17,0,0,0,2.06-2.42q.81-1.49,1.46-3l4.85,6.57L705,818.36a31.07,31.07,0,0,0-.47-3.27,8,8,0,0,0-1.21-3l-18.92-25.63a7.92,7.92,0,0,0-2.46-2q-1.49-.8-3-1.46L699.29,768l4.88,6.61q-1.66.18-3.34.48a7,7,0,0,0-2.93,1.23Z"/><path class="cls-1" d="M726.7,743.89l5.51,6.1q-1.58.3-3.22.77a7.08,7.08,0,0,0-2.84,1.56l-4.5,4.06,9.25,10.24a7.15,7.15,0,0,1,1.94-1.35,6.44,6.44,0,0,0,.52,3.17,9.74,9.74,0,0,0,1.77,2.85l8,8.81a7.08,7.08,0,0,0,2.67,1.83q1.58.63,3.13,1.09l-9.39,8.49a31.29,31.29,0,0,0-.79-3.2,7.19,7.19,0,0,0-1.54-2.78l-21.48-23.77-4.49,4.06a7,7,0,0,0-1.79,2.63q-.63,1.58-1.09,3.13l-5.51-6.1Z"/><path class="cls-1" d="M738,731.72q.47,1.6,1.09,3.17a7.19,7.19,0,0,0,1.75,2.65l9.9,9.35a7,7,0,0,1,1.79-1.45,6.76,6.76,0,0,0,.81,3.08,9.74,9.74,0,0,0,2,2.7l8.63,8.16a7.33,7.33,0,0,0,2.79,1.64,30.72,30.72,0,0,0,3.19.86l-8.7,9.2a31.08,31.08,0,0,0-1-3.13,7.9,7.9,0,0,0-1.71-2.69l-23.16-21.88a7.89,7.89,0,0,0-2.78-1.55q-1.61-.53-3.23-.91Z"/><path class="cls-1" d="M750,717.87a13.88,13.88,0,0,1,4.39-3.61,14.42,14.42,0,0,1,10.79-1.13,14,14,0,0,1,5.05,2.62l4.11,3.32a6.91,6.91,0,0,1,1.67-1.58,6.76,6.76,0,0,0,1,3,9.8,9.8,0,0,0,2.19,2.54l2.75,2.23a14.2,14.2,0,0,1,2.9,3.15,14.53,14.53,0,0,1,1.79,3.71,13.85,13.85,0,0,1,.64,4,15.16,15.16,0,0,1-.49,4L790,741.5a9.91,9.91,0,0,0,3.44.66q1.93.05,3.79-.06l-8,9.88a22,22,0,0,0-1.77-2.44,6.28,6.28,0,0,0-2.52-1.8l-2.06-.89a14.6,14.6,0,0,1-4.34,2.84,14,14,0,0,1-5,1.12,14.84,14.84,0,0,1-5-.69,14,14,0,0,1-4.64-2.52l-11.76-9.51a14,14,0,0,1-3.62-4.39,14.5,14.5,0,0,1-1.17-10.77A13.78,13.78,0,0,1,750,717.87Zm11.32,17.3a7,7,0,0,1,1.69-1.61,6.42,6.42,0,0,0,1,3,9.86,9.86,0,0,0,2.19,2.54l4.48,3.62A6,6,0,0,0,773,743.9a6.65,6.65,0,0,0,2.43.19,6.22,6.22,0,0,0,2.31-.71,6.55,6.55,0,0,0,3.09-3.83,5.9,5.9,0,0,0,.2-2.39,7,7,0,0,0-.71-2.31,6,6,0,0,0-1.59-1.94l-15.16-12.26a6,6,0,0,0-2.23-1.15,7,7,0,0,0-2.41-.21,6.37,6.37,0,0,0-2.32.67,6.19,6.19,0,0,0-3.09,3.83,6.94,6.94,0,0,0-.21,2.41,6.24,6.24,0,0,0,.7,2.34,6.17,6.17,0,0,0,1.62,2Z"/><path class="cls-1" d="M780.75,674.38q.75,1.49,1.63,2.95a7,7,0,0,0,2.19,2.31L796,687a7.09,7.09,0,0,1,1.52-1.8,6.43,6.43,0,0,0,1.32,2.93,9.77,9.77,0,0,0,2.44,2.3l3,1.92a13.87,13.87,0,0,1,4.09,4A14.59,14.59,0,0,1,810.62,707a14.38,14.38,0,0,1-6.1,9.42,14.33,14.33,0,0,1-5.06,2.13,15,15,0,0,1-5.49.09,13.86,13.86,0,0,1-5.33-2.09l-19.7-12.75a7.94,7.94,0,0,0-3-1q-1.67-.23-3.34-.3l6.88-10.63q.75,1.49,1.65,2.92a7.21,7.21,0,0,0,2.2,2.28l11.43,7.4a6.88,6.88,0,0,1,1.49-1.75,6.76,6.76,0,0,0,1.35,2.88,9.76,9.76,0,0,0,2.44,2.3l4.84,3.13a6,6,0,0,0,2.34.91,7,7,0,0,0,2.42,0,5.85,5.85,0,0,0,2.23-1,6.36,6.36,0,0,0,1.72-1.78,6.46,6.46,0,0,0,.95-2.35,5.83,5.83,0,0,0,0-2.42,7,7,0,0,0-1-2.23,6,6,0,0,0-1.79-1.76l-21.56-14a7,7,0,0,0-3-1q-1.69-.2-3.36-.28Z"/><path class="cls-1" d="M792.81,664.1l11.69,6,1.34-2.62a7.2,7.2,0,0,0,.77-3.08,30.8,30.8,0,0,0-.06-3.3l9.34,4.79q-1.38.85-2.74,1.87a7,7,0,0,0-2.08,2.41l-1.34,2.62,11.7,6,4.08-8a7.2,7.2,0,0,0,.77-3.08q.06-1.69,0-3.35l7.26,3.72-11.57,22.59a31,31,0,0,0-1.88-2.72,7.93,7.93,0,0,0-2.39-2.1l-28.35-14.53a7.93,7.93,0,0,0-3.11-.71q-1.69-.06-3.36,0l11.57-22.59,7.32,3.75q-1.4.9-2.77,1.92a7,7,0,0,0-2.08,2.41Z"/><path class="cls-1" d="M801.32,631.89a13.14,13.14,0,0,1,2-3.48,13.33,13.33,0,0,1,2.86-2.6,15,15,0,0,1,3.4-1.7,14.75,14.75,0,0,1,3.68-.78l1.59,7.63a6.46,6.46,0,0,0-2.39-.48,6.75,6.75,0,0,0-2.36.41,5.93,5.93,0,0,0-2,1.23,5.43,5.43,0,0,0-1.35,2,5.25,5.25,0,0,0-.39,2.33,6.27,6.27,0,0,0,.59,2.24,6.35,6.35,0,0,0,1.39,1.92,6.48,6.48,0,0,0,2.06,1.31,5.45,5.45,0,0,0,3.19.44,5.92,5.92,0,0,0,2.51-1.25,14.27,14.27,0,0,0,2.26-2.39q1.1-1.43,2.42-3a19.25,19.25,0,0,1,3.15-2.93,13.55,13.55,0,0,1,3.55-1.9,10.84,10.84,0,0,1,3.92-.59,12.5,12.5,0,0,1,4.3,1,10.16,10.16,0,0,1,3.9,2.77,14.37,14.37,0,0,1,2.53,4.09,12.48,12.48,0,0,1,.91,5.22,15.8,15.8,0,0,1-1.15,5.36,13.82,13.82,0,0,1-4.88,6.25,14.52,14.52,0,0,1-7.26,2.71l-3.59-8.43,2.06.83a6,6,0,0,0,2.47.45,6.63,6.63,0,0,0,2.38-.53,6.23,6.23,0,0,0,3.37-3.46,6.22,6.22,0,0,0,0-4.83,6.71,6.71,0,0,0-1.35-2,6,6,0,0,0-2.09-1.39,4.89,4.89,0,0,0-3.78-.16,8.45,8.45,0,0,0-3.1,2.31q-1.39,1.51-2.81,3.2a30.55,30.55,0,0,1-3,3.1,16.09,16.09,0,0,1-3.4,2.35,9.25,9.25,0,0,1-4.18,1,12,12,0,0,1-6.4-1.86,11.73,11.73,0,0,1-4.56-5.13,14.16,14.16,0,0,1-1.36-5.53A13.18,13.18,0,0,1,801.32,631.89Z"/><polygon class="cls-2" points="458.7 526.49 412.75 572.45 392.75 552.45 366.79 526.49 412.75 480.53 432.75 500.53 458.7 526.49"/><rect class="cls-2" x="260.23" y="493.99" width="65" height="65" transform="translate(-286.55 361.2) rotate(-45)"/><polygon class="cls-2" points="432.75 552.45 432.75 586.48 392.75 586.48 392.75 552.45 412.75 572.45 432.75 552.45"/><polygon class="cls-2" points="592.75 706.49 592.75 746.49 429.46 746.49 392.75 709.78 392.75 606.48 432.75 606.48 432.75 693.21 446.02 706.49 592.75 706.49"/><polygon class="cls-2" points="592.75 306.49 592.75 346.49 446.02 346.49 432.75 359.77 432.75 552.45 412.75 572.45 392.75 552.45 392.75 343.2 429.46 306.49 592.75 306.49"/><polygon class="cls-2" points="669.47 446.5 452.75 446.5 452.75 406.5 629.46 406.5 669.47 446.5"/><polygon class="cls-2" points="669.46 606.48 629.45 646.48 432.75 646.48 432.75 606.48 669.46 606.48"/><polygon class="cls-2" points="312.74 593.2 326.01 606.48 432.75 606.48 432.75 646.48 309.44 646.48 272.74 609.76 272.74 443.22 309.44 406.5 432.75 406.5 432.75 446.5 326.01 446.5 312.74 459.78 312.74 593.2"/><polygon class="cls-2" points="702.75 606.48 702.75 646.48 629.45 646.48 669.46 606.48 702.75 606.48"/><polygon class="cls-2" points="702.75 406.5 702.75 446.5 669.47 446.5 629.46 406.5 702.75 406.5"/><polygon class="cls-2" points="592.74 379.78 519.46 306.49 592.74 306.49 592.74 379.78"/><polygon class="cls-2" points="592.74 746.49 519.46 746.49 592.74 673.21 592.74 746.49"/><polygon class="cls-2" points="702.74 406.49 702.74 479.77 669.47 446.5 629.46 406.5 629.45 406.49 702.74 406.49"/><polygon class="cls-2" points="702.74 573.2 702.74 646.48 629.45 646.48 669.46 606.48 702.74 573.2"/><path class="cls-1" d="M249.71,208a26.26,26.26,0,0,1,4.66-12.52,44.15,44.15,0,0,1,9.42-9.36l9.57-7.12q.41,2.52,1,5.07a11.92,11.92,0,0,0,2,4.5l3.11,4.18a12,12,0,0,0-5.35-1.78,8.13,8.13,0,0,0-5.31,1.65,21.82,21.82,0,0,0-7.17,8.37,20.16,20.16,0,0,0-1.79,9.49,28.82,28.82,0,0,0,2.58,10.16,53.75,53.75,0,0,0,6.08,10.27,10,10,0,0,1,2.88-1.62,7.34,7.34,0,0,0,0,3.18,18.31,18.31,0,0,0,1,3.27,43.16,43.16,0,0,0,6.13,5.63,32.12,32.12,0,0,0,6.57,3.84,20.27,20.27,0,0,0,10.46,1.68,19.2,19.2,0,0,0,9.8-4,11.78,11.78,0,0,0,2.2-2.11,7,7,0,0,0,1.29-2.48,5.74,5.74,0,0,0,.05-2.81,8.2,8.2,0,0,0-1.53-3.11,4.52,4.52,0,0,0-2.74-2,3,3,0,0,0-2.41.49,3,3,0,0,0-1.13,2.21,4.55,4.55,0,0,0,1.1,3.16,4.39,4.39,0,0,1-3,.25,4.71,4.71,0,0,1-2.33-1.51,4.87,4.87,0,0,1-1.2-3.87,7.07,7.07,0,0,1,1.55-3.82,10,10,0,0,1,4.3-3.09,11.93,11.93,0,0,1,5-.7,10.23,10.23,0,0,1,5.77,2.41,13.67,13.67,0,0,1,3.81,5.12,13.85,13.85,0,0,1,.63,9.92,15.85,15.85,0,0,1-5.85,8.11,35.58,35.58,0,0,1-14,6.65,29.9,29.9,0,0,1-13.59-.25,35.31,35.31,0,0,1-12.57-6.2A55,55,0,0,1,259.83,238a59.14,59.14,0,0,1-8.25-15A32.07,32.07,0,0,1,249.71,208Z"/><path class="cls-1" d="M339.71,155.32q-.15,2.33-.13,4.71a9.73,9.73,0,0,0,1,4.34l8.53,17.06a10,10,0,0,1,3.12-1.09,9,9,0,0,0-.49,4.47,13.67,13.67,0,0,0,1.31,4.51l7.44,14.88a9.9,9.9,0,0,0,2.91,3.47q1.9,1.45,3.81,2.65l-15.85,7.92a43.26,43.26,0,0,0,.13-4.62,10.07,10.07,0,0,0-1-4.32L342.3,193l-13.67,6.84,8.11,16.23a10.24,10.24,0,0,0,2.87,3.49,42.92,42.92,0,0,0,3.77,2.67l-15.85,7.92a43.27,43.27,0,0,0,.13-4.62,11.09,11.09,0,0,0-1-4.36l-19.94-39.9a11.1,11.1,0,0,0-2.91-3.38q-1.86-1.46-3.81-2.74l15.85-7.92q-.15,2.33-.09,4.7a10.07,10.07,0,0,0,1,4.32l8.11,16.23,13.67-6.84-8.11-16.23a10.08,10.08,0,0,0-2.84-3.42q-1.86-1.46-3.81-2.74Z"/><path class="cls-1" d="M375.11,151.13l5.52,17.55,3.93-1.24a10.07,10.07,0,0,0,3.82-2.26,43.06,43.06,0,0,0,3.23-3.31l4.41,14q-2.2-.54-4.55-.9a9.75,9.75,0,0,0-4.44.3l-3.93,1.23,5.52,17.55,11.94-3.75a10.07,10.07,0,0,0,3.83-2.26q1.74-1.6,3.31-3.33l3.43,10.9-33.9,10.66a43.17,43.17,0,0,0,.86-4.54,11.09,11.09,0,0,0-.26-4.46l-13.38-42.55a11.09,11.09,0,0,0-2.34-3.8q-1.6-1.74-3.33-3.31L392.68,137l3.45,11q-2.27-.52-4.63-.88a9.75,9.75,0,0,0-4.44.3Z"/><path class="cls-1" d="M429.86,129.22q-.84,2.18-1.5,4.45a10.06,10.06,0,0,0-.31,4.43l3,18.83a9.67,9.67,0,0,1,3.22-.09,9.49,9.49,0,0,0-1.72,4.1,13.69,13.69,0,0,0-.1,4.7l2.67,16.67,12.36-2a10.07,10.07,0,0,0,4.11-1.68q2-1.33,3.76-2.81l1.81,11.28-35.08,5.62a43.4,43.4,0,0,0,1.51-4.37,11.1,11.1,0,0,0,.39-4.44l-7.05-44a11.1,11.1,0,0,0-1.76-4.1q-1.33-2-2.81-3.76Z"/><path class="cls-1" d="M487.93,124.06a19.42,19.42,0,0,1,7.8,1.57,20.17,20.17,0,0,1,10.76,10.72,19.53,19.53,0,0,1,1.62,7.81l0,7.39a9.64,9.64,0,0,1,3.19.41,9.47,9.47,0,0,0-2.34,3.79,13.64,13.64,0,0,0-.83,4.62v5a19.44,19.44,0,0,1-1.57,7.86,20.29,20.29,0,0,1-10.7,10.74,19.95,19.95,0,0,1-15.63,0,20.41,20.41,0,0,1-10.72-10.68,19.44,19.44,0,0,1-1.61-7.85l-.06-21.17a19.52,19.52,0,0,1,1.57-7.82,20.3,20.3,0,0,1,10.66-10.78A19.34,19.34,0,0,1,487.93,124.06Zm-8.79,27.58a9.82,9.82,0,0,1,3.25.41,9,9,0,0,0-2.4,3.79,13.8,13.8,0,0,0-.82,4.62l0,8.06a8.33,8.33,0,0,0,.72,3.44,9.28,9.28,0,0,0,1.94,2.81,9,9,0,0,0,9.71,1.86,8.28,8.28,0,0,0,2.77-1.9,9.73,9.73,0,0,0,1.88-2.82,8.35,8.35,0,0,0,.71-3.45l-.08-27.3a8.37,8.37,0,0,0-.72-3.44,9.78,9.78,0,0,0-1.9-2.81,8.86,8.86,0,0,0-2.78-1.92,8.66,8.66,0,0,0-6.89,0,9.73,9.73,0,0,0-2.81,1.9,8.78,8.78,0,0,0-2.63,6.31Z"/><path class="cls-1" d="M575.59,132.48q-1.49,1.8-2.87,3.75a9.74,9.74,0,0,0-1.73,4.1l-3.07,18.82a10,10,0,0,1,3.17.94,9,9,0,0,0-3,3.34,13.67,13.67,0,0,0-1.57,4.42l-.8,4.89a19.42,19.42,0,0,1-2.84,7.5,20.43,20.43,0,0,1-12.29,8.85,20.12,20.12,0,0,1-15.5-2.53,20.06,20.06,0,0,1-5.56-5.29,20.93,20.93,0,0,1-3.2-7,19.38,19.38,0,0,1-.31-8l5.29-32.42a11.11,11.11,0,0,0-.38-4.45q-.65-2.28-1.49-4.46l17.49,2.85q-1.49,1.8-2.83,3.75a10.06,10.06,0,0,0-1.69,4.11l-3.07,18.82a9.67,9.67,0,0,1,3.08.93,9.48,9.48,0,0,0-2.93,3.35,13.67,13.67,0,0,0-1.57,4.42l-1.3,8a8.31,8.31,0,0,0,.15,3.51,9.72,9.72,0,0,0,1.41,3.08,8.15,8.15,0,0,0,2.47,2.32,8.86,8.86,0,0,0,3.25,1.21,9.07,9.07,0,0,0,3.55-.1,8.16,8.16,0,0,0,3.08-1.41,9.75,9.75,0,0,0,2.32-2.47A8.33,8.33,0,0,0,554.1,174l5.79-35.48a9.74,9.74,0,0,0-.34-4.44q-.69-2.28-1.53-4.46Z"/><path class="cls-1" d="M614.75,144a19.37,19.37,0,0,1,9.12,6.33,20.34,20.34,0,0,1,4.35,9.94L617.61,163a8.36,8.36,0,0,0,.43-3.49,9.79,9.79,0,0,0-.89-3.27,8.85,8.85,0,0,0-2-2.72,8.66,8.66,0,0,0-6.52-2.21,9.72,9.72,0,0,0-3.27.89,8.77,8.77,0,0,0-4.53,5.12l-3.34,9.87a10,10,0,0,1,3,1.45,9,9,0,0,0-3.52,2.8,13.66,13.66,0,0,0-2.28,4.11l-2.59,7.64a8.32,8.32,0,0,0-.43,3.49,9.3,9.3,0,0,0,.93,3.29,9,9,0,0,0,8.58,4.9,8.28,8.28,0,0,0,3.23-.9,9.73,9.73,0,0,0,2.69-2.06,8.35,8.35,0,0,0,1.78-3l1-2.94,5.76,11.53a20.33,20.33,0,0,1-9.5,5.25,20.11,20.11,0,0,1-18-4.55,20.43,20.43,0,0,1-6.71-13.58,19.39,19.39,0,0,1,1-8l6.79-20a19.51,19.51,0,0,1,4-6.89,20.31,20.31,0,0,1,13.59-6.75A19.42,19.42,0,0,1,614.75,144Z"/><path class="cls-1" d="M688.56,177.27q-2,1.24-3.91,2.64a9.72,9.72,0,0,0-2.94,3.34l-8.88,16.87a10,10,0,0,1,2.7,1.9,9,9,0,0,0-3.92,2.21,13.65,13.65,0,0,0-2.89,3.7L661,222.65a9.89,9.89,0,0,0-1.12,4.39q-.07,2.38.07,4.64l-15.68-8.25a43.18,43.18,0,0,0,3.83-2.59,10.07,10.07,0,0,0,2.91-3.36l8.49-16.13-13.53-7.12-8.45,16.06a10.25,10.25,0,0,0-1.16,4.37,43,43,0,0,0,0,4.62L620.68,211a43.39,43.39,0,0,0,3.83-2.59,11.08,11.08,0,0,0,3-3.32l20.77-39.47a11.12,11.12,0,0,0,1-4.34q.11-2.36,0-4.7L665,164.87q-2,1.24-3.87,2.66a10.09,10.09,0,0,0-2.91,3.36l-8.45,16.06,13.53,7.12L671.75,178a10.07,10.07,0,0,0,1.12-4.3q.11-2.36,0-4.7Z"/><path class="cls-1" d="M712.63,203.58l-11,14.72,3.29,2.47a10.07,10.07,0,0,0,4.07,1.79,42.84,42.84,0,0,0,4.57.7L704.7,235q-.84-2.1-1.92-4.22a9.75,9.75,0,0,0-2.83-3.43l-3.29-2.47-11,14.72,10,7.51a10.07,10.07,0,0,0,4.07,1.79q2.32.48,4.64.75l-6.85,9.14-28.43-21.31a43.43,43.43,0,0,0,4.19-1.95,11.1,11.1,0,0,0,3.47-2.81L703.47,197a11.1,11.1,0,0,0,1.72-4.12q.48-2.32.75-4.64l28.43,21.31-6.9,9.21q-.91-2.15-2-4.28a9.74,9.74,0,0,0-2.83-3.43Z"/><path class="cls-1" d="M174,658.21a349.64,349.64,0,0,1-34-140.7c-.11-3.76-.17-7.46-.17-11s.06-7.27.17-11a350.9,350.9,0,0,1,25-120.18l7.43,3A342.94,342.94,0,0,0,148,495.71c-.11,3.67-.17,7.3-.17,10.78s.06,7.1.17,10.78a341.69,341.69,0,0,0,33.24,137.5Z"/><path class="cls-1" d="M212.13,305.82l-6.5-4.66a355,355,0,0,1,46.73-53.11l5.45,5.86A347,347,0,0,0,212.13,305.82Z"/><path class="cls-1" d="M773.36,305.82a347.52,347.52,0,0,0-45.66-51.91l5.45-5.86a355.47,355.47,0,0,1,46.72,53.11Z"/><path class="cls-1" d="M828.52,615.56l-7.61-2.47a344.35,344.35,0,0,0,16.62-95.83c.11-3.69.17-7.32.17-10.78s-.06-7.09-.17-10.78a342.72,342.72,0,0,0-24.46-117.44l7.43-3a350.7,350.7,0,0,1,25,120.18c.11,3.77.17,7.48.17,11s-.06,7.25-.17,11A352.37,352.37,0,0,1,828.52,615.56Z"/><polygon class="cls-2" points="492.2 829.78 501.06 857.03 529.7 857.03 506.53 873.87 515.38 901.11 492.2 884.27 469.03 901.11 477.88 873.87 454.7 857.03 483.35 857.03 492.2 829.78"/><path class="cls-1" d="M136.16,317.05a14,14,0,0,1,5.58,1.14,14.43,14.43,0,0,1,7.68,7.68,13.94,13.94,0,0,1,1.14,5.58v5.28a7.15,7.15,0,0,1,2.34.3,6.45,6.45,0,0,0-1.74,2.7,9.77,9.77,0,0,0-.6,3.3v3.54a13.87,13.87,0,0,1-1.14,5.61,14.52,14.52,0,0,1-7.68,7.65,13.93,13.93,0,0,1-5.58,1.14H121.22a30.9,30.9,0,0,0,1.56-2.91,7.92,7.92,0,0,0,.78-3.09V323.11a7.93,7.93,0,0,0-.78-3.09q-.72-1.53-1.56-3Zm-4.56,19.68a6.93,6.93,0,0,1,2.28.3,6.77,6.77,0,0,0-1.68,2.7,9.77,9.77,0,0,0-.6,3.3v12.06h4.56a6.23,6.23,0,0,0,4.47-1.83,6.68,6.68,0,0,0,1.38-2,6,6,0,0,0,.51-2.46v-19.5a6,6,0,0,0-.51-2.46,6.67,6.67,0,0,0-3.39-3.39,6,6,0,0,0-2.46-.51H131.6Z"/><path class="cls-1" d="M174.08,322.93v13.14H177a7.19,7.19,0,0,0,3.09-.72,30.68,30.68,0,0,0,2.91-1.56v10.5q-1.38-.84-2.91-1.59A7,7,0,0,0,177,342h-2.94v13.14H183a7.2,7.2,0,0,0,3.09-.72q1.53-.72,3-1.56V361H163.7a30.9,30.9,0,0,0,1.56-2.91A7.92,7.92,0,0,0,166,355V323.11a7.93,7.93,0,0,0-.78-3.09q-.72-1.53-1.56-3h25.38v8.22q-1.44-.84-3-1.59a7,7,0,0,0-3.09-.75Z"/><path class="cls-1" d="M216.62,317.05a13,13,0,0,1,5.43,1,11.76,11.76,0,0,1,3.87,2.76,11.38,11.38,0,0,1,2.34,3.93,13.5,13.5,0,0,1,.78,4.5,13.24,13.24,0,0,1-.78,4.47,11.42,11.42,0,0,1-2.34,3.9,11.74,11.74,0,0,1-3.87,2.76,13,13,0,0,1-5.43,1h-4.56v13.44a7.32,7.32,0,0,0,.72,3.15,30.68,30.68,0,0,0,1.56,2.91H201.68a30.9,30.9,0,0,0,1.56-2.91A7.92,7.92,0,0,0,204,355V323.11a7.93,7.93,0,0,0-.78-3.09q-.72-1.53-1.56-3Zm-4.56,18.54h2.58a6.23,6.23,0,0,0,4.47-1.83,6.68,6.68,0,0,0,1.38-2,6.19,6.19,0,0,0,0-4.92,6.67,6.67,0,0,0-3.39-3.39,6,6,0,0,0-2.46-.51h-2.58Z"/><path class="cls-1" d="M273.86,317.05q-.84,1.44-1.59,3a7,7,0,0,0-.75,3.09v13.62a7.14,7.14,0,0,1,2.34.3,6.45,6.45,0,0,0-1.74,2.7,9.77,9.77,0,0,0-.6,3.3v3.54a13.87,13.87,0,0,1-1.14,5.61,14.6,14.6,0,0,1-7.65,7.65,14.38,14.38,0,0,1-11.22,0,14.33,14.33,0,0,1-4.53-3.09,14.93,14.93,0,0,1-3.06-4.56,13.86,13.86,0,0,1-1.14-5.61V323.11A7.93,7.93,0,0,0,242,320q-.72-1.53-1.56-3H253.1q-.84,1.44-1.56,3a7.2,7.2,0,0,0-.72,3.09v13.62a6.93,6.93,0,0,1,2.28.3,6.77,6.77,0,0,0-1.68,2.7,9.77,9.77,0,0,0-.6,3.3v5.76a6,6,0,0,0,.51,2.46,6.91,6.91,0,0,0,1.35,2,5.82,5.82,0,0,0,2,1.35,6.32,6.32,0,0,0,2.43.48,6.47,6.47,0,0,0,2.49-.48,5.83,5.83,0,0,0,2-1.35,7,7,0,0,0,1.35-2,6,6,0,0,0,.51-2.46V323.11a7,7,0,0,0-.75-3.09q-.75-1.53-1.59-3Z"/><path class="cls-1" d="M299.12,317.05q-.84,1.44-1.56,3a7.2,7.2,0,0,0-.72,3.09v13.62a6.93,6.93,0,0,1,2.28.3,6.77,6.77,0,0,0-1.68,2.7,9.77,9.77,0,0,0-.6,3.3v11.88a7.32,7.32,0,0,0,.72,3.15,30.68,30.68,0,0,0,1.56,2.91H286.46a30.9,30.9,0,0,0,1.56-2.91,7.92,7.92,0,0,0,.78-3.09V323.11A7.93,7.93,0,0,0,288,320q-.72-1.53-1.56-3Z"/><path class="cls-1" d="M325.16,317.05a13.13,13.13,0,0,1,4,.6,13.34,13.34,0,0,1,3.48,1.68,14.91,14.91,0,0,1,4.95,5.64l-6.48,4.32a6.49,6.49,0,0,0-.45-2.4,6.72,6.72,0,0,0-1.26-2,5.94,5.94,0,0,0-1.89-1.41,5.43,5.43,0,0,0-2.34-.51,5.23,5.23,0,0,0-2.31.51,6.29,6.29,0,0,0-1.86,1.38,6.35,6.35,0,0,0-1.26,2,6.48,6.48,0,0,0-.45,2.4,5.45,5.45,0,0,0,.78,3.12,5.92,5.92,0,0,0,2.1,1.86,14.37,14.37,0,0,0,3.06,1.2q1.74.48,3.66,1.14a19.35,19.35,0,0,1,3.9,1.83,13.53,13.53,0,0,1,3.09,2.58,10.81,10.81,0,0,1,2,3.42,12.48,12.48,0,0,1,.72,4.35,10.15,10.15,0,0,1-1.11,4.65,14.38,14.38,0,0,1-2.85,3.87,12.47,12.47,0,0,1-4.5,2.79,15.8,15.8,0,0,1-5.4.93,13.83,13.83,0,0,1-7.62-2.19,14.51,14.51,0,0,1-5.22-5.73l6.48-6.48v2.22a6,6,0,0,0,.51,2.46,6.64,6.64,0,0,0,1.38,2,6.33,6.33,0,0,0,8.94,0,6.68,6.68,0,0,0,1.38-2,6,6,0,0,0,.51-2.46,4.89,4.89,0,0,0-1.26-3.57,8.47,8.47,0,0,0-3.3-2q-1.92-.72-4-1.41a30.47,30.47,0,0,1-4-1.62,16.11,16.11,0,0,1-3.45-2.28,9.24,9.24,0,0,1-2.46-3.51,12,12,0,0,1-.66-6.63,11.74,11.74,0,0,1,3.06-6.15,14.11,14.11,0,0,1,4.62-3.33A13.2,13.2,0,0,1,325.16,317.05Z"/><path class="cls-1" d="M696.11,348.79v6.3h10.44a7.2,7.2,0,0,0,3.09-.72,30.79,30.79,0,0,0,2.91-1.56V361H688.07V348.73a12.49,12.49,0,0,1,.72-4.35,10.81,10.81,0,0,1,2-3.42,13.79,13.79,0,0,1,3.06-2.58,18.12,18.12,0,0,1,3.93-1.83q1.92-.66,3.66-1.14a14.41,14.41,0,0,0,3.06-1.2,5.94,5.94,0,0,0,2.1-1.86,5.46,5.46,0,0,0,.78-3.12,6.13,6.13,0,0,0-.48-2.4,6.81,6.81,0,0,0-1.29-2,6.3,6.3,0,0,0-1.86-1.38,5.23,5.23,0,0,0-2.31-.51,5.29,5.29,0,0,0-2.28.51,5.94,5.94,0,0,0-1.89,1.41,6.71,6.71,0,0,0-1.26,2,6.47,6.47,0,0,0-.45,2.4L689.08,325a14.7,14.7,0,0,1,2.1-3.12,15.31,15.31,0,0,1,2.82-2.52,12.85,12.85,0,0,1,3.45-1.68,13.13,13.13,0,0,1,4-.6,13.4,13.4,0,0,1,5.55,1.23,14.05,14.05,0,0,1,4.65,3.33,12.18,12.18,0,0,1,3,6.15,11.47,11.47,0,0,1-.69,6.63,9.42,9.42,0,0,1-2.43,3.51,15.21,15.21,0,0,1-3.45,2.28,33,33,0,0,1-4,1.62q-2.07.69-4,1.41a6.36,6.36,0,0,0-3,2A5.75,5.75,0,0,0,696.11,348.79Z"/><path class="cls-1" d="M741.85,317.05a13.89,13.89,0,0,1,5.57,1.14,14.42,14.42,0,0,1,7.66,7.68,14,14,0,0,1,1.14,5.58v15.12a13.9,13.9,0,0,1-1.14,5.61,14.51,14.51,0,0,1-7.66,7.65,14.25,14.25,0,0,1-11.17,0,14.58,14.58,0,0,1-7.63-7.65,13.88,13.88,0,0,1-1.14-5.61V331.45a13.94,13.94,0,0,1,1.14-5.58,14.49,14.49,0,0,1,7.63-7.68A13.83,13.83,0,0,1,741.85,317.05Zm-6.33,31.74a6,6,0,0,0,.51,2.46,6.64,6.64,0,0,0,1.38,2,6.43,6.43,0,0,0,6.93,1.35,5.91,5.91,0,0,0,2-1.35,7,7,0,0,0,1.35-2,6,6,0,0,0,.51-2.46v-19.5a6,6,0,0,0-.51-2.46,7,7,0,0,0-1.35-2,6.34,6.34,0,0,0-2-1.38,6.19,6.19,0,0,0-4.92,0,7,7,0,0,0-2,1.35,6.27,6.27,0,0,0-1.89,4.5Z"/><path class="cls-1" d="M783.25,317.05a13.89,13.89,0,0,1,5.57,1.14,14.41,14.41,0,0,1,7.66,7.68,14,14,0,0,1,1.14,5.58v15.12a13.88,13.88,0,0,1-1.14,5.61,14.5,14.5,0,0,1-7.66,7.65,14.24,14.24,0,0,1-11.17,0,14.59,14.59,0,0,1-7.63-7.65,13.89,13.89,0,0,1-1.14-5.61V331.45a14,14,0,0,1,1.14-5.58,14.5,14.5,0,0,1,7.63-7.68A13.82,13.82,0,0,1,783.25,317.05Zm-6.33,31.74a5.94,5.94,0,0,0,.51,2.46,6.64,6.64,0,0,0,1.38,2,6.43,6.43,0,0,0,6.93,1.35,5.9,5.9,0,0,0,2-1.35,7,7,0,0,0,1.35-2,6,6,0,0,0,.51-2.46v-19.5a6,6,0,0,0-.51-2.46,7,7,0,0,0-1.35-2,6.33,6.33,0,0,0-2-1.38,6.19,6.19,0,0,0-4.92,0,7,7,0,0,0-2,1.35,6.27,6.27,0,0,0-1.89,4.5Z"/><path class="cls-1" d="M823.13,328.51a14,14,0,0,1,5.58,1.14,14.43,14.43,0,0,1,7.68,7.68,13.93,13.93,0,0,1,1.14,5.58v3.66a13.86,13.86,0,0,1-1.14,5.61,14.52,14.52,0,0,1-7.68,7.65,14.3,14.3,0,0,1-13.2-1.05,14.51,14.51,0,0,1-5.22-5.73l6.48-4.26a5.94,5.94,0,0,0,.51,2.46,6.62,6.62,0,0,0,1.38,2,6.33,6.33,0,0,0,8.94,0,6.67,6.67,0,0,0,1.38-2,6,6,0,0,0,.51-2.46v-8.1a6,6,0,0,0-.51-2.46,6.33,6.33,0,0,0-1.38-2,7,7,0,0,0-2-1.35,6.19,6.19,0,0,0-4.92,0,7,7,0,0,0-2,1.35,6.28,6.28,0,0,0-1.38,2,6,6,0,0,0-.51,2.46l-6.48-4.26V317.05h24.9v8.22q-1.38-.84-2.91-1.59a7,7,0,0,0-3.09-.75H818.33v6.42A14.11,14.11,0,0,1,823.13,328.51Z"/><circle class="cls-1" cx="143.79" cy="506.49" r="10.9"/><circle class="cls-1" cx="841.7" cy="506.49" r="10.9"/><path class="cls-2" d="M422.94,1019.06h2.6q15.92,0,30.16,13.53,10,12.15,11,22a51,51,0,0,1,.75,5.91v3.56q0,8.63-5.86,20a44.71,44.71,0,0,1-24.34,19.44,54,54,0,0,1-12.52,2.05h-1q-16.55,0-30.7-13.32a44.78,44.78,0,0,1-12-31v-.5a1.92,1.92,0,0,1,.25-1c0-.2-.08-.29-.25-.29q1.63-12.48,6.66-20.19,8-12.94,24.55-18.43A40.15,40.15,0,0,1,422.94,1019.06Zm-5.86,27.6.25,7.92q0,.38-.75.8h-4.36v8.92h4.36q.38,0,.75.8v22l.13,1.55h9.09v-23.79c.06-.36.22-.54.5-.54h7.41q.5,0,1.3-8.42v-.5H427a.44.44,0,0,1-.5-.5v-6.16q0-3.94,4.61-4.36h5.11v-7.67q0-.75-5.36-.75h-1.3q-8.84,0-11.52,6.62A27.31,27.31,0,0,0,417.07,1046.67Z"/><path class="cls-2" d="M572.71,1019.15h6.16q9.89,0,22.49,8.17a44.4,44.4,0,0,1,13.78,17.13q3.85,9.26,3.85,15.62v3.56q0,14.33-11.77,28.4-13.66,13.28-31.71,13.28-22.54,0-36.82-21-6.12-11.31-6.12-22.24,0-18,14.83-32.46Q561.23,1019.15,572.71,1019.15Zm-19.94,37.32v13.32q0,10.89,6.91,14.53,3.1,1.76,19.94,1.3,12.9,0,14.83-2.81,4.36-3.48,4.36-11.52v-17.13q0-10.14-7.16-13.28l-3.18-1-3.23-.25H566.59q-10,0-13.32,9.72A43.69,43.69,0,0,0,552.77,1056.47Zm14.58-12.78h17.89q9.72,0,9.72,10.22v18.14q-1.3,9.47-7.92,9.47h-7.41q-5.19,0-11,.25-9.63,0-11.27-6.12a76,76,0,0,1-.5-10.22v-5.65q0-12.77,2.05-12.78Q561,1043.69,567.35,1043.69ZM564,1062.88q0,8.25,9.47,11.48h5.11q9.17-3.31,9.17-11.73v-.54q0-4.78-4.86-8.92a11.87,11.87,0,0,0-6.87-2.3h-.25q-7.92,0-11,8.17Q564.37,1059.57,564,1062.88Zm11.77-8h.25q5.53,0,7.41,5.91a3.78,3.78,0,0,1,.25,1.8q-1.22,7.92-7.67,7.92-5.11,0-7.41-5.11a6.45,6.45,0,0,1-.54-2.56Q569,1054.92,575.81,1054.92Zm9.68-4.31q1.13,2.56,2.85,2.56t2.81-2.56q-.59-3.1-3.1-3.1A3.11,3.11,0,0,0,585.48,1050.61Z"/></svg>